<svg width="17" height="17" viewBox="0 0 17 17" fill="none" xmlns="http://www.w3.org/2000/svg">
<path d="M5.37217 6.32804L12.3166 8.25701L9.68849 12.6375C9.68849 12.6376 9.68848 12.6376 9.68848 12.6376C9.63544 12.7259 9.60742 12.8271 9.60742 12.9302C9.60742 14.9049 11.2138 16.5113 13.1886 16.5113C15.1633 16.5113 16.7697 14.9049 16.7697 12.9302C16.7697 12.8271 16.7417 12.7259 16.6887 12.6376L16.6029 12.689L16.6887 12.6376L14.4095 8.83832L16.0488 9.29371C16.0996 9.30781 16.1509 9.31458 16.2013 9.31458C16.4504 9.31458 16.6791 9.14979 16.7491 8.89794L16.7491 8.89792C16.8331 8.59528 16.656 8.28178 16.3533 8.19771L13.3355 7.35948L9.23867 6.22149V0.98948C9.23867 0.850663 9.21361 0.68468 9.12904 0.550099C9.04027 0.408815 8.89112 0.311285 8.66992 0.311285C8.54732 0.311285 8.44523 0.342269 8.3629 0.398535C8.28122 0.454362 8.22539 0.530682 8.18739 0.611567C8.11291 0.770102 8.10117 0.958742 8.10117 1.09105V5.90553L4.29823 4.84916L1.29103 4.01384C0.988425 3.92973 0.674872 4.10697 0.590779 4.40961L0.590772 4.40963C0.506756 4.71226 0.683887 5.02577 0.986583 5.10983C0.986584 5.10983 0.986586 5.10984 0.986588 5.10984L3.27923 5.74669L0.651176 10.1272C0.651171 10.1272 0.651165 10.1272 0.651159 10.1272C0.598127 10.2155 0.570099 10.3167 0.57016 10.4197C0.57016 10.4198 0.57016 10.4198 0.57016 10.4198L0.67016 10.4198C0.670097 11.3496 1.03219 12.2238 1.68972 12.8813C2.34728 13.5389 3.22147 13.901 4.15131 13.901C6.0708 13.901 7.63246 12.3393 7.63246 10.4198C7.63246 10.3349 7.60933 10.2515 7.56564 10.1787L5.37217 6.32804ZM15.5649 13.4989C15.3079 14.5729 14.34 15.3738 13.1886 15.3738C12.0372 15.3738 11.0693 14.5729 10.8123 13.4989H15.5649ZM11.1806 12.3614L13.1886 9.01445L15.1965 12.3614H11.1806ZM6.15928 9.85103H2.14327L4.15131 6.50413L6.15928 9.85103ZM4.15125 12.8635C2.99987 12.8635 2.03197 12.0626 1.77487 10.9886H6.52765C6.27055 12.0626 5.3026 12.8635 4.15125 12.8635Z" fill="#003466" stroke="#003466" stroke-width="0.2"/>
</svg>
